<svg xmlns="http://www.w3.org/2000/svg" viewBox="0 0 1024 1024"><defs><style>.cls-1{fill:#fff;}.cls-2{fill:#06f;}</style></defs><g id="Слой_4" data-name="Слой 4"><rect class="cls-1" x="-3.1" width="1027.1" height="1027.13"/><path class="cls-2" d="M512,928.3a414.9,414.9,0,1,1,162.1-32.7A414.4,414.4,0,0,1,512,928.3Zm0-748.5c-183.2,0-332.2,149-332.2,332.2S328.8,844.2,512,844.2,844.2,695.2,844.2,512,695.2,179.8,512,179.8Z"/><path class="cls-2" d="M578.7,578.7a25.9,25.9,0,0,1-8.5,5.9l-100.6,44L377,669.1c-16.1,7.1-29.2-6-22.1-22.1l40.5-92.7,44-100.5a29.1,29.1,0,0,1,14.4-14.4l100.5-44L647,354.9c16.1-7.1,29.2,6,22.1,22.1l-40.5,92.6-44,100.6A25.9,25.9,0,0,1,578.7,578.7Z"/></g></svg>