<svg xmlns="http://www.w3.org/2000/svg" viewBox="0 0 512 512"><defs><style>.cls-1{fill:#fff;}</style></defs><g id="Слой_3" data-name="Слой 3"><path class="cls-1" d="M255.3,512A254.6,254.6,0,0,1,74.8,437.2,255.4,255.4,0,0,1,20.1,157.3,251.9,251.9,0,0,1,74.8,76.2a255.3,255.3,0,1,1,361,361A254.6,254.6,0,0,1,255.3,512Zm0-459C143,53,51.6,144.4,51.6,256.7S143,460.4,255.3,460.4,459,369,459,256.7,367.6,53,255.3,53Z"/><path class="cls-1" d="M296.2,297.6a14.7,14.7,0,0,1-5.2,3.6l-61.7,27-56.8,24.9c-9.9,4.3-17.9-3.7-13.6-13.6l24.9-56.8,27-61.7a17.7,17.7,0,0,1,8.8-8.8l61.7-27,56.8-24.9c9.9-4.3,17.9,3.7,13.6,13.6l-24.9,56.8-27,61.7A16.1,16.1,0,0,1,296.2,297.6Z"/></g></svg>