<svg version="1.1" xmlns="http://www.w3.org/2000/svg" xmlns:xlink="http://www.w3.org/1999/xlink"
	 viewBox="0 0 1014 582" style="enable-background:new 0 0 1014 582;" xml:space="preserve">
<style type="text/css">
	.st6{fill:#FFFFFF;}
	.st12{fill:#EEEEEE;}
</style>
<g>
	<g>
		<g>
			<path class="st12" d="M328.2,91.7l-80.1,259.9L168,91.7H87.4L219,490.4h54.7L411,91.7H328.2z"/>
			<polygon class="st6" points="419.6,91.6 382.9,199 420.6,311.2 429.9,339 334.9,339 310,411.9 453,411.9 479.1,490.2 
				479.1,490.4 564.3,490.4 			"/>
			<g>
				<path class="st12" d="M633.2,318.6c20.9-7.5,38.2-20.1,52-38c13.8-17.9,20.7-40.1,20.7-66.5c0-34.3-11.6-63.2-34.9-86.6
					c-23.3-23.5-54.7-35.2-94.2-35.2H427.5l86.8,239.3h40.2l77.7,158.8h90L633.2,318.6z M612.5,252c-10.4,9.7-24,14.5-40.8,14.5
					h-73.2V161.5h73.2c16.8,0,30.4,4.8,40.8,14.5c10.4,9.7,15.6,22.4,15.6,38C628.2,229.7,623,242.4,612.5,252z"/>
			</g>
			<path class="st6" d="M926.6,161.5V92.2H664.5v19.1c4.2,3.3,8.2,6.8,12.1,10.6c24.7,24.9,37.2,55.9,37.2,92.2
				c0,28.1-7.5,52.1-22.3,71.3c-7.9,10.2-16.9,18.8-27,25.9v50.6l64.6,124.7l1.9,3.6h195.7v-69.3H742.2v-96.7h157.1v-69.3H742.2
				v-93.3H926.6z"/>
		</g>
	</g>
</g>
</svg>
