<?xml version="1.0" encoding="utf-8"?>
<!-- Generator: Adobe Illustrator 24.3.0, SVG Export Plug-In . SVG Version: 6.00 Build 0)  -->
<svg version="1.1" id="Слой_1" xmlns="http://www.w3.org/2000/svg" xmlns:xlink="http://www.w3.org/1999/xlink" x="0px" y="0px"
	 viewBox="0 0 128 128" style="enable-background:new 0 0 128 128;" xml:space="preserve">
<style type="text/css">
	.st0{opacity:4.000000e-02;fill:none;stroke:#FFFFFF;stroke-width:6;stroke-linecap:round;stroke-miterlimit:10;}
	
		.st1{opacity:4.000000e-02;fill:none;stroke:#FFFFFF;stroke-width:6;stroke-linecap:round;stroke-linejoin:round;stroke-miterlimit:10;}
	.st2{opacity:4.000000e-02;fill:#FFFFFF;}
</style>
<circle class="st0" cx="41.5" cy="31.5" r="10.5"/>
<polygon class="st1" points="51,78 41,95.3 61,95.3 "/>
<rect x="85.1" y="46.1" transform="matrix(0.7071 0.7071 -0.7071 0.7071 67.4081 -50.7792)" class="st1" width="19.8" height="19.8"/>
<path class="st2" d="M-1.3,4.2l9,9c0.9,0.9,2.5,0.9,3.4,0l2.1-2.1c0.9-0.9,0.9-2.5,0-3.4l-9-9c-0.9-0.9-2.5-0.9-3.4,0l-2.1,2.1
	C-2.2,1.8-2.2,3.3-1.3,4.2z"/>
<path class="st2" d="M114.7,120.2l9,9c0.9,0.9,2.5,0.9,3.4,0l2.1-2.1c0.9-0.9,0.9-2.5,0-3.4l-9-9c-0.9-0.9-2.5-0.9-3.4,0l-2.1,2.1
	C113.8,117.8,113.8,119.3,114.7,120.2z"/>
<path class="st2" d="M7.8,114.7l-9,9c-0.9,0.9-0.9,2.5,0,3.4l2.1,2.1c0.9,0.9,2.5,0.9,3.4,0l9-9c0.9-0.9,0.9-2.5,0-3.4l-2.1-2.1
	C10.2,113.8,8.7,113.8,7.8,114.7z"/>
<path class="st2" d="M123.8-1.3l-9,9c-0.9,0.9-0.9,2.5,0,3.4l2.1,2.1c0.9,0.9,2.5,0.9,3.4,0l9-9c0.9-0.9,0.9-2.5,0-3.4l-2.1-2.1
	C126.2-2.2,124.7-2.2,123.8-1.3z"/>
</svg>
