<?xml version="1.0" encoding="utf-8"?>
<!-- Generator: Adobe Illustrator 24.3.0, SVG Export Plug-In . SVG Version: 6.00 Build 0)  -->
<svg version="1.1" xmlns="http://www.w3.org/2000/svg" xmlns:xlink="http://www.w3.org/1999/xlink" x="0px" y="0px"
	 viewBox="0 0 1014 582" style="enable-background:new 0 0 1014 582;" xml:space="preserve">
<style type="text/css">
	.st0{fill:none;stroke:#F4AC00;stroke-width:77.7652;stroke-linecap:round;stroke-linejoin:round;stroke-miterlimit:10;}
	.st1{fill:#FFFFFF;stroke:#F4AC00;stroke-width:77.7652;stroke-linecap:round;stroke-linejoin:round;stroke-miterlimit:10;}
	.st2{fill:none;stroke:#F4AC00;stroke-width:84.2507;stroke-linecap:round;stroke-linejoin:round;stroke-miterlimit:10;}
	.st3{fill:none;stroke:#000000;stroke-width:35;stroke-miterlimit:10;}
	.st4{fill:#333333;}
	.st5{fill:#FF0000;}
	.st6{fill:#FFFFFF;}
	.st7{fill:#232323;}
	.st8{fill:#E78539;}
	.st9{fill:#9F280D;}
	.st10{fill:#7289DA;}
	.st11{fill:#CCCCCC;}
	.st12{fill:#EEEEEE;}
	.st13{fill:#333333;stroke:#FFFFFF;stroke-width:30;stroke-miterlimit:10;}
	.st14{fill:#E7751E;}
	.st15{fill:none;stroke:#DDDDDD;stroke-width:30;stroke-miterlimit:10;}
	.st16{display:none;fill:#232323;}
	.st17{fill:none;stroke:#FFFFFF;stroke-width:30;stroke-miterlimit:10;}
	.st18{fill:#666666;stroke:#FFFFFF;stroke-width:30;stroke-miterlimit:10;}
	.st19{fill:none;stroke:#F4AC00;stroke-width:77.7652;stroke-miterlimit:10;}
	.st20{fill:#FFFFFF;stroke:#F4AC00;stroke-width:77.7652;stroke-miterlimit:10;}
</style>
<g id="Слой_1">
</g>
<g id="Слой_3">
</g>
<g id="Слой_4">
</g>
<g id="Слой_5">
</g>
<g id="Слой_6">
</g>
<g id="Слой_7">
	<g>
		<path class="st6" d="M983.5,30v522h-953V30H983.5 M1013.5,0H0.5v582h1013V0L1013.5,0z"/>
	</g>
	<g>
		<g>
			<path class="st12" d="M328.2,91.7l-80.1,259.9L168,91.7H87.4L219,490.4h54.7L411,91.7H328.2z"/>
			<polygon class="st6" points="419.6,91.6 382.9,199 420.6,311.2 429.9,339 334.9,339 310,411.9 453,411.9 479.1,490.2 
				479.1,490.4 564.3,490.4 			"/>
			<g>
				<path class="st12" d="M633.2,318.6c20.9-7.5,38.2-20.1,52-38c13.8-17.9,20.7-40.1,20.7-66.5c0-34.3-11.6-63.2-34.9-86.6
					c-23.3-23.5-54.7-35.2-94.2-35.2H427.5l86.8,239.3h40.2l77.7,158.8h90L633.2,318.6z M612.5,252c-10.4,9.7-24,14.5-40.8,14.5
					h-73.2V161.5h73.2c16.8,0,30.4,4.8,40.8,14.5c10.4,9.7,15.6,22.4,15.6,38C628.2,229.7,623,242.4,612.5,252z"/>
			</g>
			<path class="st6" d="M926.6,161.5V92.2H664.5v19.1c4.2,3.3,8.2,6.8,12.1,10.6c24.7,24.9,37.2,55.9,37.2,92.2
				c0,28.1-7.5,52.1-22.3,71.3c-7.9,10.2-16.9,18.8-27,25.9v50.6l64.6,124.7l1.9,3.6h195.7v-69.3H742.2v-96.7h157.1v-69.3H742.2
				v-93.3H926.6z"/>
		</g>
	</g>
</g>
<g id="Слой_2">
</g>
<g id="Слой_8">
</g>
</svg>
